<svg width="637" height="637" viewBox="0 0 637 637" fill="none" xmlns="http://www.w3.org/2000/svg">
<g clip-path="url(#clip0_5_6)">
<path d="M636.049 0H0V636.049H636.049V0Z" fill="white"/>
<g filter="url(#filter0_d_5_6)">
<rect x="268.205" y="421.951" width="41" height="27" rx="5" fill="#F5F5F5"/>
</g>
<g filter="url(#filter1_d_5_6)">
<rect x="323.205" y="421.951" width="41" height="27" rx="5" fill="#F5F5F5"/>
</g>
<g filter="url(#filter2_d_5_6)">
<path d="M307.545 299.146C312.603 291.804 323.446 291.804 328.504 299.146L406.02 411.755C411.829 420.194 405.789 431.689 395.541 431.689H240.507C230.261 431.689 224.219 420.194 230.028 411.755L307.545 299.146Z" fill="#F5F5F5"/>
</g>
<g filter="url(#filter3_d_5_6)">
<path d="M335.705 195.519H297.817C256.664 195.519 223.303 228.879 223.303 270.032C223.303 311.185 256.664 344.546 297.817 344.546H335.705C376.858 344.546 410.219 311.185 410.219 270.032C410.219 228.879 376.858 195.519 335.705 195.519Z" fill="#F0F0F0"/>
</g>
<path d="M343.962 295.001C348.469 295.001 352.123 284.04 352.123 270.519C352.123 256.998 348.469 246.037 343.962 246.037C339.455 246.037 335.802 256.998 335.802 270.519C335.802 284.04 339.455 295.001 343.962 295.001Z" fill="#87CF97"/>
<path d="M289.56 295.001C294.067 295.001 297.72 284.04 297.72 270.519C297.72 256.998 294.067 246.037 289.56 246.037C285.053 246.037 281.399 256.998 281.399 270.519C281.399 284.04 285.053 295.001 289.56 295.001Z" fill="#87CF97"/>
<g filter="url(#filter4_i_5_6)">
<path d="M318.024 373.595C354.966 373.595 318.024 410.534 318.024 373.595C318.024 410.534 281.083 373.595 318.024 373.595C318.024 336.653 281.083 373.595 318.024 373.595C354.966 373.595 318.024 336.653 318.024 373.595Z" fill="#82C290"/>
</g>
<path d="M318.024 377.383C320.117 377.383 321.813 375.687 321.813 373.595C321.813 371.502 320.117 369.806 318.024 369.806C315.932 369.806 314.235 371.502 314.235 373.595C314.235 375.687 315.932 377.383 318.024 377.383Z" fill="#C4FFF4"/>
<path d="M290.205 270.951L297.705 266.621V275.281L290.205 270.951Z" fill="#F0F0F0"/>
<path d="M345.205 270.951L352.705 266.621V275.281L345.205 270.951Z" fill="#F0F0F0"/>
</g>
<defs>
<filter id="filter0_d_5_6" x="264.205" y="421.951" width="49" height="35" filterUnits="userSpaceOnUse" color-interpolation-filters="sRGB">
<feFlood flood-opacity="0" result="BackgroundImageFix"/>
<feColorMatrix in="SourceAlpha" type="matrix" values="0 0 0 0 0 0 0 0 0 0 0 0 0 0 0 0 0 0 127 0" result="hardAlpha"/>
<feOffset dy="4"/>
<feGaussianBlur stdDeviation="2"/>
<feComposite in2="hardAlpha" operator="out"/>
<feColorMatrix type="matrix" values="0 0 0 0 0 0 0 0 0 0 0 0 0 0 0 0 0 0 0.25 0"/>
<feBlend mode="normal" in2="BackgroundImageFix" result="effect1_dropShadow_5_6"/>
<feBlend mode="normal" in="SourceGraphic" in2="effect1_dropShadow_5_6" result="shape"/>
</filter>
<filter id="filter1_d_5_6" x="319.205" y="421.951" width="49" height="35" filterUnits="userSpaceOnUse" color-interpolation-filters="sRGB">
<feFlood flood-opacity="0" result="BackgroundImageFix"/>
<feColorMatrix in="SourceAlpha" type="matrix" values="0 0 0 0 0 0 0 0 0 0 0 0 0 0 0 0 0 0 127 0" result="hardAlpha"/>
<feOffset dy="4"/>
<feGaussianBlur stdDeviation="2"/>
<feComposite in2="hardAlpha" operator="out"/>
<feColorMatrix type="matrix" values="0 0 0 0 0 0 0 0 0 0 0 0 0 0 0 0 0 0 0.25 0"/>
<feBlend mode="normal" in2="BackgroundImageFix" result="effect1_dropShadow_5_6"/>
<feBlend mode="normal" in="SourceGraphic" in2="effect1_dropShadow_5_6" result="shape"/>
</filter>
<filter id="filter2_d_5_6" x="223.764" y="293.639" width="188.521" height="146.049" filterUnits="userSpaceOnUse" color-interpolation-filters="sRGB">
<feFlood flood-opacity="0" result="BackgroundImageFix"/>
<feColorMatrix in="SourceAlpha" type="matrix" values="0 0 0 0 0 0 0 0 0 0 0 0 0 0 0 0 0 0 127 0" result="hardAlpha"/>
<feOffset dy="4"/>
<feGaussianBlur stdDeviation="2"/>
<feColorMatrix type="matrix" values="0 0 0 0 0 0 0 0 0 0 0 0 0 0 0 0 0 0 0.25 0"/>
<feBlend mode="normal" in2="BackgroundImageFix" result="effect1_dropShadow_5_6"/>
<feBlend mode="normal" in="SourceGraphic" in2="effect1_dropShadow_5_6" result="shape"/>
</filter>
<filter id="filter3_d_5_6" x="219.303" y="195.519" width="194.916" height="157.027" filterUnits="userSpaceOnUse" color-interpolation-filters="sRGB">
<feFlood flood-opacity="0" result="BackgroundImageFix"/>
<feColorMatrix in="SourceAlpha" type="matrix" values="0 0 0 0 0 0 0 0 0 0 0 0 0 0 0 0 0 0 127 0" result="hardAlpha"/>
<feOffset dy="4"/>
<feGaussianBlur stdDeviation="2"/>
<feColorMatrix type="matrix" values="0 0 0 0 0 0 0 0 0 0 0 0 0 0 0 0 0 0 0.25 0"/>
<feBlend mode="normal" in2="BackgroundImageFix" result="effect1_dropShadow_5_6"/>
<feBlend mode="normal" in="SourceGraphic" in2="effect1_dropShadow_5_6" result="shape"/>
</filter>
<filter id="filter4_i_5_6" x="301.606" y="357.176" width="32.8371" height="36.8359" filterUnits="userSpaceOnUse" color-interpolation-filters="sRGB">
<feFlood flood-opacity="0" result="BackgroundImageFix"/>
<feBlend mode="normal" in="SourceGraphic" in2="BackgroundImageFix" result="shape"/>
<feColorMatrix in="SourceAlpha" type="matrix" values="0 0 0 0 0 0 0 0 0 0 0 0 0 0 0 0 0 0 127 0" result="hardAlpha"/>
<feOffset dy="4"/>
<feGaussianBlur stdDeviation="2"/>
<feComposite in2="hardAlpha" operator="arithmetic" k2="-1" k3="1"/>
<feColorMatrix type="matrix" values="0 0 0 0 0.429167 0 0 0 0 0.429167 0 0 0 0 0.429167 0 0 0 0.25 0"/>
<feBlend mode="normal" in2="shape" result="effect1_innerShadow_5_6"/>
</filter>
<clipPath id="clip0_5_6">
<rect width="636.049" height="636.049" rx="318.024" fill="white"/>
</clipPath>
</defs>
</svg>
