<svg width="500" height="500" viewBox="0 0 500 500" fill="none" xmlns="http://www.w3.org/2000/svg">
<g clip-path="url(#clip0_3_37)">
<path d="M500 0H0V500H500V0Z" fill="white"/>
<g filter="url(#filter0_d_3_37)">
<path d="M241.762 235.16C245.738 229.388 254.262 229.388 258.238 235.16L319.174 323.682C323.74 330.316 318.992 339.352 310.936 339.352H189.063C181.009 339.352 176.259 330.316 180.826 323.682L241.762 235.16Z" fill="#F5F5F5"/>
</g>
<g filter="url(#filter1_d_3_37)">
<path d="M263.899 153.698H234.115C201.765 153.698 175.54 179.923 175.54 212.273C175.54 244.624 201.765 270.849 234.115 270.849H263.899C296.25 270.849 322.475 244.624 322.475 212.273C322.475 179.923 296.25 153.698 263.899 153.698Z" fill="#F0F0F0"/>
</g>
<g filter="url(#filter2_i_3_37)">
<path d="M270.39 231.901C273.933 231.901 276.805 223.285 276.805 212.656C276.805 202.027 273.933 193.411 270.39 193.411C266.847 193.411 263.975 202.027 263.975 212.656C263.975 223.285 266.847 231.901 270.39 231.901Z" fill="#87CF97"/>
</g>
<g filter="url(#filter3_i_3_37)">
<path d="M227.624 231.901C231.167 231.901 234.039 223.285 234.039 212.656C234.039 202.027 231.167 193.411 227.624 193.411C224.081 193.411 221.209 202.027 221.209 212.656C221.209 223.285 224.081 231.901 227.624 231.901Z" fill="#87CF97"/>
</g>
<g filter="url(#filter4_i_3_37)">
<path d="M250 293.684C279.04 293.684 250 322.722 250 293.684C250 322.722 220.96 293.684 250 293.684C250 264.644 220.96 293.684 250 293.684C279.04 293.684 250 264.644 250 293.684Z" fill="#82C290"/>
</g>
<path d="M250 296.662C251.645 296.662 252.978 295.329 252.978 293.684C252.978 292.039 251.645 290.706 250 290.706C248.355 290.706 247.022 292.039 247.022 293.684C247.022 295.329 248.355 296.662 250 296.662Z" fill="#F3FFC4"/>
</g>
<defs>
<filter id="filter0_d_3_37" x="175.046" y="230.831" width="149.908" height="116.521" filterUnits="userSpaceOnUse" color-interpolation-filters="sRGB">
<feFlood flood-opacity="0" result="BackgroundImageFix"/>
<feColorMatrix in="SourceAlpha" type="matrix" values="0 0 0 0 0 0 0 0 0 0 0 0 0 0 0 0 0 0 127 0" result="hardAlpha"/>
<feOffset dy="4"/>
<feGaussianBlur stdDeviation="2"/>
<feColorMatrix type="matrix" values="0 0 0 0 0 0 0 0 0 0 0 0 0 0 0 0 0 0 0.25 0"/>
<feBlend mode="normal" in2="BackgroundImageFix" result="effect1_dropShadow_3_37"/>
<feBlend mode="normal" in="SourceGraphic" in2="effect1_dropShadow_3_37" result="shape"/>
</filter>
<filter id="filter1_d_3_37" x="171.54" y="153.698" width="154.935" height="125.151" filterUnits="userSpaceOnUse" color-interpolation-filters="sRGB">
<feFlood flood-opacity="0" result="BackgroundImageFix"/>
<feColorMatrix in="SourceAlpha" type="matrix" values="0 0 0 0 0 0 0 0 0 0 0 0 0 0 0 0 0 0 127 0" result="hardAlpha"/>
<feOffset dy="4"/>
<feGaussianBlur stdDeviation="2"/>
<feColorMatrix type="matrix" values="0 0 0 0 0 0 0 0 0 0 0 0 0 0 0 0 0 0 0.25 0"/>
<feBlend mode="normal" in2="BackgroundImageFix" result="effect1_dropShadow_3_37"/>
<feBlend mode="normal" in="SourceGraphic" in2="effect1_dropShadow_3_37" result="shape"/>
</filter>
<filter id="filter2_i_3_37" x="263.975" y="193.411" width="12.8301" height="42.4902" filterUnits="userSpaceOnUse" color-interpolation-filters="sRGB">
<feFlood flood-opacity="0" result="BackgroundImageFix"/>
<feBlend mode="normal" in="SourceGraphic" in2="BackgroundImageFix" result="shape"/>
<feColorMatrix in="SourceAlpha" type="matrix" values="0 0 0 0 0 0 0 0 0 0 0 0 0 0 0 0 0 0 127 0" result="hardAlpha"/>
<feOffset dy="4"/>
<feGaussianBlur stdDeviation="2"/>
<feComposite in2="hardAlpha" operator="arithmetic" k2="-1" k3="1"/>
<feColorMatrix type="matrix" values="0 0 0 0 0.516667 0 0 0 0 0.516667 0 0 0 0 0.516667 0 0 0 0.25 0"/>
<feBlend mode="normal" in2="shape" result="effect1_innerShadow_3_37"/>
</filter>
<filter id="filter3_i_3_37" x="221.209" y="193.411" width="12.8301" height="42.4902" filterUnits="userSpaceOnUse" color-interpolation-filters="sRGB">
<feFlood flood-opacity="0" result="BackgroundImageFix"/>
<feBlend mode="normal" in="SourceGraphic" in2="BackgroundImageFix" result="shape"/>
<feColorMatrix in="SourceAlpha" type="matrix" values="0 0 0 0 0 0 0 0 0 0 0 0 0 0 0 0 0 0 127 0" result="hardAlpha"/>
<feOffset dy="4"/>
<feGaussianBlur stdDeviation="2"/>
<feComposite in2="hardAlpha" operator="arithmetic" k2="-1" k3="1"/>
<feColorMatrix type="matrix" values="0 0 0 0 0.516667 0 0 0 0 0.516667 0 0 0 0 0.516667 0 0 0 0.25 0"/>
<feBlend mode="normal" in2="shape" result="effect1_innerShadow_3_37"/>
</filter>
<filter id="filter4_i_3_37" x="237.093" y="280.777" width="25.8134" height="29.8125" filterUnits="userSpaceOnUse" color-interpolation-filters="sRGB">
<feFlood flood-opacity="0" result="BackgroundImageFix"/>
<feBlend mode="normal" in="SourceGraphic" in2="BackgroundImageFix" result="shape"/>
<feColorMatrix in="SourceAlpha" type="matrix" values="0 0 0 0 0 0 0 0 0 0 0 0 0 0 0 0 0 0 127 0" result="hardAlpha"/>
<feOffset dy="4"/>
<feGaussianBlur stdDeviation="2"/>
<feComposite in2="hardAlpha" operator="arithmetic" k2="-1" k3="1"/>
<feColorMatrix type="matrix" values="0 0 0 0 0.429167 0 0 0 0 0.429167 0 0 0 0 0.429167 0 0 0 0.25 0"/>
<feBlend mode="normal" in2="shape" result="effect1_innerShadow_3_37"/>
</filter>
<clipPath id="clip0_3_37">
<rect width="500" height="500" rx="250" fill="white"/>
</clipPath>
</defs>
</svg>
